<svg width="63" height="63" viewBox="0 0 63 63" fill="none" xmlns="http://www.w3.org/2000/svg">
<path fill-rule="evenodd" clip-rule="evenodd" d="M31.5514 39.2107C30.787 39.2107 30.0055 39.3272 29.3432 39.584C29.0182 39.7097 28.6208 39.9082 28.2709 40.2287C27.9197 40.5508 27.4658 41.1466 27.4658 41.9998C27.4658 42.8529 27.9197 43.4488 28.2709 43.7706C28.6208 44.0914 29.0182 44.2895 29.3432 44.4155C30.0055 44.6723 30.787 44.7888 31.5514 44.7888C32.316 44.7888 33.0972 44.6723 33.7598 44.4155C34.0845 44.2895 34.4819 44.0914 34.8318 43.7706C35.1833 43.4488 35.6372 42.8529 35.6372 41.9998C35.6372 41.1466 35.1833 40.5508 34.8318 40.2287C34.4819 39.9082 34.0845 39.7097 33.7598 39.584C33.0972 39.3272 32.316 39.2107 31.5514 39.2107Z" fill="#E53939"/>
<path d="M36.8457 33.1968C37.2788 32.4975 38.1343 31.6641 39.4177 31.6641C40.7008 31.6641 41.5563 32.4975 41.9894 33.1968C42.4412 33.9263 42.6564 34.8106 42.6564 35.6837C42.6564 36.5565 42.4412 37.4409 41.9894 38.1704C41.5563 38.8697 40.7008 39.7031 39.4177 39.7031C38.1343 39.7031 37.2788 38.8697 36.8457 38.1704C36.394 37.4409 36.1787 36.5565 36.1787 35.6837C36.1787 34.8106 36.394 33.9263 36.8457 33.1968Z" fill="#E53939"/>
<path d="M23.6679 31.6641C22.3847 31.6641 21.5292 32.4975 21.096 33.1968C20.6442 33.9263 20.429 34.8106 20.429 35.6837C20.429 36.5565 20.6442 37.4409 21.096 38.1704C21.5292 38.8697 22.3847 39.7031 23.6679 39.7031C24.9511 39.7031 25.8066 38.8697 26.2397 38.1704C26.6915 37.4409 26.9067 36.5565 26.9067 35.6837C26.9067 34.8106 26.6915 33.9263 26.2397 33.1968C25.8066 32.4975 24.9511 31.6641 23.6679 31.6641Z" fill="#E53939"/>
<path fill-rule="evenodd" clip-rule="evenodd" d="M15.999 11.1562C14.3889 11.1562 12.5334 11.6254 11.0482 12.9049C9.50843 14.2314 8.58385 16.243 8.58385 18.8672V23.7891L8.58388 23.7968C8.5869 24.5685 8.71789 26.1124 9.1581 27.4029C9.30208 27.8253 9.53213 28.3852 9.9163 28.8902C9.1708 30.3681 8.81748 31.8924 8.65691 33.3624C8.52285 34.5899 8.52104 35.8782 8.54238 37.0679C6.80715 37.6706 5.01052 38.4166 4.18215 38.9516C3.26875 39.5414 3.00652 40.7602 3.59641 41.6734C4.1863 42.5869 5.40495 42.8492 6.31832 42.2594C6.62392 42.062 7.52551 41.6493 8.71151 41.1965C8.89232 42.4541 9.25879 43.5999 9.77051 44.6415C9.3613 44.8967 8.99973 45.1329 8.71208 45.3211C8.60197 45.3931 8.50269 45.4579 8.41572 45.5141C7.50233 46.1039 7.24009 47.3227 7.82998 48.236C8.41987 49.1495 9.63853 49.4117 10.5519 48.8219C10.6599 48.752 10.7749 48.6769 10.8963 48.5977C11.2407 48.373 11.6363 48.1147 12.0671 47.8506C13.6146 49.4322 15.5365 50.6531 17.5328 51.5713C22.2074 53.7217 27.7436 54.4688 31.5003 54.4688C35.2566 54.4688 40.793 53.7217 45.4676 51.5713C47.4639 50.6531 49.3857 49.4322 50.9331 47.8506C51.3642 48.1147 51.7597 48.373 52.1039 48.5977C52.2254 48.6769 52.3404 48.752 52.4483 48.8219C53.3618 49.4117 54.5803 49.1495 55.1704 48.236C55.7602 47.3227 55.498 46.1039 54.5845 45.5141C54.4976 45.4579 54.3984 45.3931 54.2881 45.3211C54.0004 45.1329 53.639 44.8967 53.23 44.6415C53.7416 43.5999 54.1083 42.4541 54.2889 41.1962C55.4754 41.649 56.3774 42.062 56.6832 42.2594C57.5964 42.8492 58.8152 42.5869 59.4051 41.6734C59.9949 40.7602 59.7327 39.5414 58.8194 38.9516C57.9907 38.4166 56.1936 37.6703 54.458 37.0676C54.4795 35.878 54.4777 34.5896 54.3435 33.3624C54.1831 31.8924 53.8296 30.3681 53.0841 28.8902C53.4684 28.3852 53.6983 27.8253 53.8424 27.4029C54.2826 26.1124 54.4136 24.5685 54.4165 23.7968L54.4168 23.7891V18.8675C54.4168 16.2433 53.492 14.2318 51.9524 12.9052C50.4672 11.6257 48.6116 11.1565 47.0017 11.1565C45.9294 11.1565 44.8203 11.568 43.926 11.972C42.9781 12.4003 41.9874 12.9567 41.0965 13.4698C40.9048 13.5801 40.7187 13.6879 40.5379 13.7926L40.5326 13.7956C39.8396 14.197 39.2246 14.5533 38.6765 14.8356C38.336 15.0111 38.0717 15.1313 37.8748 15.2042C37.7919 15.2349 37.7388 15.2504 37.7115 15.2576C37.0464 15.2539 36.6224 15.1996 36.01 15.1212C35.8788 15.1043 35.7386 15.0864 35.5855 15.0676C34.6757 14.9558 33.527 14.8479 31.5003 14.8479C29.4735 14.8479 28.3251 14.9558 27.415 15.0676C27.2619 15.0864 27.122 15.1043 26.9905 15.1212C26.3784 15.1996 25.9544 15.2539 25.2889 15.2576C25.2617 15.2504 25.2087 15.2349 25.1258 15.2042C24.929 15.1313 24.6646 15.011 24.3241 14.8356C23.7761 14.5532 23.1612 14.1971 22.4681 13.7956C22.2856 13.69 22.0977 13.5811 21.9042 13.4697C21.0132 12.9566 20.0226 12.4001 19.0746 11.9718C18.1804 11.5677 17.0711 11.1562 15.999 11.1562ZM16.175 46.2362C17.0519 46.8975 18.0621 47.4807 19.1784 47.9942C23.197 49.8427 28.1345 50.5312 31.5003 50.5312C34.866 50.5312 39.8034 49.8427 43.822 47.9942C44.9384 47.4807 45.9485 46.8975 46.8253 46.2362C45.9002 46.0751 45.197 45.2681 45.197 44.2969C45.197 43.2096 46.0785 42.3281 47.1657 42.3281C48.0246 42.3281 48.9024 42.5429 49.7172 42.8411C50.1336 41.9698 50.3892 41.0156 50.4593 39.9711C49.6779 39.7803 49.1382 39.7031 48.8602 39.7031C47.7729 39.7031 46.8914 38.8217 46.8914 37.7344C46.8914 36.6471 47.7729 35.7656 48.8602 35.7656C49.3713 35.7656 49.9495 35.8423 50.5323 35.9557C50.5326 35.2309 50.5089 34.5193 50.4294 33.7901C50.2443 32.0959 49.7647 30.592 48.6331 29.2548C48.2283 28.7766 47.7249 28.3009 47.093 27.8368C46.2165 27.1934 46.0278 25.9612 46.6714 25.0848C47.3148 24.2084 48.547 24.0196 49.4235 24.6631C49.7361 24.8927 50.0317 25.1287 50.3105 25.3708C50.426 24.7718 50.4774 24.1452 50.4793 23.7848V18.8675C50.4793 17.2261 49.9375 16.3665 49.3823 15.8883C48.7728 15.3632 47.9052 15.094 47.0017 15.094C46.8169 15.094 46.3549 15.1953 45.5472 15.5602C44.793 15.9009 43.9509 16.3698 43.0613 16.882C42.8943 16.9782 42.7242 17.0768 42.5528 17.1761C41.8498 17.5834 41.1232 18.0044 40.4799 18.3359C40.074 18.5449 39.6511 18.7451 39.2424 18.8965C38.8652 19.0363 38.3434 19.1953 37.7845 19.1953C36.8085 19.1953 36.1245 19.1068 35.4677 19.0218C35.3467 19.0061 35.2264 18.9905 35.1054 18.9757C34.3476 18.8826 33.3595 18.7854 31.5003 18.7854C29.6412 18.7854 28.6529 18.8826 27.8951 18.9757C27.7743 18.9905 27.6541 19.0061 27.5328 19.0218C26.8763 19.1068 26.1921 19.1953 25.216 19.1953C24.6573 19.1953 24.1354 19.0363 23.7581 18.8965C23.3493 18.7451 22.9264 18.5449 22.5206 18.3358C21.8774 18.0044 21.1507 17.5833 20.4479 17.176C20.2764 17.0766 20.1063 16.9781 19.9392 16.8818C19.0497 16.3696 18.2074 15.9007 17.4533 15.56C16.6455 15.195 16.1837 15.0938 15.999 15.0938C15.0954 15.0938 14.2277 15.3629 13.6182 15.888C13.0631 16.3662 12.5214 17.2257 12.5214 18.8672V23.7848C12.5231 24.1452 12.5744 24.7718 12.6899 25.3708C12.9689 25.1286 13.2644 24.8927 13.577 24.6631C14.4535 24.0196 15.6856 24.2084 16.3291 25.0848C16.9726 25.9612 16.7839 27.1934 15.9074 27.8368C15.2756 28.3009 14.7721 28.7766 14.3674 29.2548C13.2359 30.592 12.7562 32.0959 12.5711 33.7901C12.4915 34.5193 12.4679 35.2309 12.4681 35.9559C13.0513 35.8425 13.6298 35.7656 14.1414 35.7656C15.2287 35.7656 16.1101 36.6471 16.1101 37.7344C16.1101 38.8217 15.2287 39.7031 14.1414 39.7031C13.8632 39.7031 13.3232 39.7803 12.5411 39.9711C12.6114 41.0156 12.8669 41.9698 13.2832 42.8408C14.0981 42.5428 14.9757 42.3281 15.8346 42.3281C16.922 42.3281 17.8034 43.2096 17.8034 44.2969C17.8034 45.2681 17.1001 46.0751 16.175 46.2362Z" fill="#E53939"/>
</svg>
