<svg width="102" height="45" viewBox="0 0 102 45" fill="none" xmlns="http://www.w3.org/2000/svg">
<path d="M10.944 21.28H7.872V34H0V0.735992H10.896C15.44 0.735992 18.848 1.56799 21.12 3.23199C23.424 4.89599 24.576 7.43999 24.576 10.864C24.576 13.008 24.064 14.8 23.04 16.24C22.016 17.648 20.4 18.848 18.192 19.84L26.64 34H17.76L10.944 21.28ZM7.872 15.856H11.184C12.944 15.856 14.256 15.456 15.12 14.656C16.016 13.856 16.464 12.592 16.464 10.864C16.464 9.26399 15.984 8.09599 15.024 7.35999C14.096 6.62399 12.656 6.25599 10.704 6.25599H7.872V15.856Z" fill="white"/>
<path d="M10.944 21.28H7.872V34H0V0.735992H10.896C15.44 0.735992 18.848 1.56799 21.12 3.23199C23.424 4.89599 24.576 7.43999 24.576 10.864C24.576 13.008 24.064 14.8 23.04 16.24C22.016 17.648 20.4 18.848 18.192 19.84L26.64 34H17.76L10.944 21.28ZM7.872 15.856H11.184C12.944 15.856 14.256 15.456 15.12 14.656C16.016 13.856 16.464 12.592 16.464 10.864C16.464 9.26399 15.984 8.09599 15.024 7.35999C14.096 6.62399 12.656 6.25599 10.704 6.25599H7.872V15.856Z" fill="white"/>
<path d="M43.545 34.048C42.521 37.344 40.841 39.872 38.505 41.632C36.201 43.424 33.097 44.432 29.193 44.656L28.377 39.328C30.809 39.008 32.601 38.464 33.753 37.696C34.937 36.928 35.881 35.696 36.585 34H33.993L26.217 8.51199H34.281L38.841 29.152L43.833 8.51199H51.657L43.545 34.048Z" fill="white"/>
<path d="M43.545 34.048C42.521 37.344 40.841 39.872 38.505 41.632C36.201 43.424 33.097 44.432 29.193 44.656L28.377 39.328C30.809 39.008 32.601 38.464 33.753 37.696C34.937 36.928 35.881 35.696 36.585 34H33.993L26.217 8.51199H34.281L38.841 29.152L43.833 8.51199H51.657L43.545 34.048Z" fill="white"/>
<path d="M73.5026 26.608C73.5026 27.568 73.6306 28.272 73.8866 28.72C74.1746 29.168 74.6226 29.504 75.2306 29.728L73.6466 34.672C72.0786 34.544 70.7986 34.208 69.8066 33.664C68.8146 33.088 68.0466 32.192 67.5026 30.976C65.8386 33.536 63.2786 34.816 59.8226 34.816C57.2946 34.816 55.2786 34.08 53.7746 32.608C52.2706 31.136 51.5186 29.216 51.5186 26.848C51.5186 24.064 52.5426 21.936 54.5906 20.464C56.6386 18.992 59.5986 18.256 63.4706 18.256H66.0626V17.152C66.0626 15.648 65.7426 14.624 65.1026 14.08C64.4626 13.504 63.3426 13.216 61.7426 13.216C60.9106 13.216 59.9026 13.344 58.7186 13.6C57.5346 13.824 56.3186 14.144 55.0706 14.56L53.3426 9.56799C54.9426 8.95999 56.5746 8.49599 58.2386 8.17599C59.9346 7.85599 61.5026 7.69599 62.9426 7.69599C66.5906 7.69599 69.2626 8.44799 70.9586 9.95199C72.6546 11.456 73.5026 13.712 73.5026 16.72V26.608ZM62.0306 29.392C63.7586 29.392 65.1026 28.576 66.0626 26.944V22.432H64.1906C62.4626 22.432 61.1666 22.736 60.3026 23.344C59.4706 23.952 59.0546 24.896 59.0546 26.176C59.0546 27.2 59.3106 28 59.8226 28.576C60.3666 29.12 61.1026 29.392 62.0306 29.392Z" fill="white"/>
<path d="M73.5026 26.608C73.5026 27.568 73.6306 28.272 73.8866 28.72C74.1746 29.168 74.6226 29.504 75.2306 29.728L73.6466 34.672C72.0786 34.544 70.7986 34.208 69.8066 33.664C68.8146 33.088 68.0466 32.192 67.5026 30.976C65.8386 33.536 63.2786 34.816 59.8226 34.816C57.2946 34.816 55.2786 34.08 53.7746 32.608C52.2706 31.136 51.5186 29.216 51.5186 26.848C51.5186 24.064 52.5426 21.936 54.5906 20.464C56.6386 18.992 59.5986 18.256 63.4706 18.256H66.0626V17.152C66.0626 15.648 65.7426 14.624 65.1026 14.08C64.4626 13.504 63.3426 13.216 61.7426 13.216C60.9106 13.216 59.9026 13.344 58.7186 13.6C57.5346 13.824 56.3186 14.144 55.0706 14.56L53.3426 9.56799C54.9426 8.95999 56.5746 8.49599 58.2386 8.17599C59.9346 7.85599 61.5026 7.69599 62.9426 7.69599C66.5906 7.69599 69.2626 8.44799 70.9586 9.95199C72.6546 11.456 73.5026 13.712 73.5026 16.72V26.608ZM62.0306 29.392C63.7586 29.392 65.1026 28.576 66.0626 26.944V22.432H64.1906C62.4626 22.432 61.1666 22.736 60.3026 23.344C59.4706 23.952 59.0546 24.896 59.0546 26.176C59.0546 27.2 59.3106 28 59.8226 28.576C60.3666 29.12 61.1026 29.392 62.0306 29.392Z" fill="white"/>
<path d="M94.4715 7.69599C96.6795 7.69599 98.4075 8.36799 99.6555 9.71199C100.904 11.056 101.528 12.944 101.528 15.376V34H93.9435V16.672C93.9435 15.392 93.7355 14.512 93.3195 14.032C92.9355 13.52 92.3435 13.264 91.5435 13.264C90.0075 13.264 88.5355 14.368 87.1275 16.576V34H79.5435V8.51199H86.1675L86.6955 11.536C87.7835 10.256 88.9515 9.29599 90.1995 8.65599C91.4795 8.01599 92.9035 7.69599 94.4715 7.69599Z" fill="white"/>
<path d="M94.4715 7.69599C96.6795 7.69599 98.4075 8.36799 99.6555 9.71199C100.904 11.056 101.528 12.944 101.528 15.376V34H93.9435V16.672C93.9435 15.392 93.7355 14.512 93.3195 14.032C92.9355 13.52 92.3435 13.264 91.5435 13.264C90.0075 13.264 88.5355 14.368 87.1275 16.576V34H79.5435V8.51199H86.1675L86.6955 11.536C87.7835 10.256 88.9515 9.29599 90.1995 8.65599C91.4795 8.01599 92.9035 7.69599 94.4715 7.69599Z" fill="white"/>
</svg>
