<svg width="54" height="54" viewBox="0 0 54 54" fill="none" xmlns="http://www.w3.org/2000/svg">
<g clip-path="url(#clip0_75_85)">
<rect width="54" height="54" fill="white"/>
<mask id="path-1-inside-1_75_85" fill="white">
<path d="M31.5493 4.17973C30.9209 4.17973 30.2852 4.21084 29.6527 4.26927C28.8157 1.79044 26.47 0 23.7122 0C20.2549 0 17.4426 2.81232 17.4426 6.26959C17.4426 7.32417 17.7053 8.31811 18.1671 9.19139C13.7141 13.0701 11.1729 18.6331 11.1729 24.556C11.1729 28.3531 12.2138 32.0266 14.1913 35.2339L2.38083 47.0447C1.97267 47.4528 1.97267 48.1141 2.38083 48.5223L7.55249 53.6939C7.75657 53.898 8.02394 54.0001 8.2913 54.0001C8.55866 54.0001 8.82603 53.898 9.03011 53.6939L20.8336 41.8904C24.0491 43.8833 27.7359 44.9323 31.5494 44.9323C42.7845 44.9323 51.9256 35.7911 51.9256 24.5561C51.9256 13.321 42.7843 4.17973 31.5493 4.17973ZM23.7122 2.08986C26.0174 2.08986 27.8919 3.96446 27.8919 6.26959C27.8919 8.57482 26.0173 10.4493 23.7122 10.4493C21.407 10.4493 19.5325 8.57482 19.5325 6.26959C19.5325 3.96446 21.407 2.08986 23.7122 2.08986ZM31.5493 42.8425C27.8655 42.8425 24.3143 41.7527 21.2805 39.6893C20.8672 39.4077 20.309 39.4597 19.9539 39.8148L8.29119 51.4774L4.59715 47.7834L16.266 36.1146C16.6201 35.7606 16.6731 35.2054 16.3926 34.79C14.3455 31.7634 13.2629 28.2245 13.2629 24.556C13.2629 23.548 13.3465 22.5521 13.5067 21.5755L34.5274 42.596C33.5575 42.7557 32.5636 42.8425 31.5493 42.8425ZM36.9222 42.0357L14.071 19.1843C15.0478 15.9964 16.8887 13.1158 19.4451 10.8575C20.5651 11.8999 22.0649 12.5392 23.7121 12.5392C27.1444 12.5392 29.9394 9.76714 29.9797 6.34405C30.504 6.29944 31.0295 6.26959 31.5492 6.26959C41.6322 6.26959 49.8355 14.4729 49.8355 24.556C49.8357 32.7699 44.3912 39.7351 36.9222 42.0357Z"/>
</mask>
<path d="M31.5493 4.17973C30.9209 4.17973 30.2852 4.21084 29.6527 4.26927C28.8157 1.79044 26.47 0 23.7122 0C20.2549 0 17.4426 2.81232 17.4426 6.26959C17.4426 7.32417 17.7053 8.31811 18.1671 9.19139C13.7141 13.0701 11.1729 18.6331 11.1729 24.556C11.1729 28.3531 12.2138 32.0266 14.1913 35.2339L2.38083 47.0447C1.97267 47.4528 1.97267 48.1141 2.38083 48.5223L7.55249 53.6939C7.75657 53.898 8.02394 54.0001 8.2913 54.0001C8.55866 54.0001 8.82603 53.898 9.03011 53.6939L20.8336 41.8904C24.0491 43.8833 27.7359 44.9323 31.5494 44.9323C42.7845 44.9323 51.9256 35.7911 51.9256 24.5561C51.9256 13.321 42.7843 4.17973 31.5493 4.17973ZM23.7122 2.08986C26.0174 2.08986 27.8919 3.96446 27.8919 6.26959C27.8919 8.57482 26.0173 10.4493 23.7122 10.4493C21.407 10.4493 19.5325 8.57482 19.5325 6.26959C19.5325 3.96446 21.407 2.08986 23.7122 2.08986ZM31.5493 42.8425C27.8655 42.8425 24.3143 41.7527 21.2805 39.6893C20.8672 39.4077 20.309 39.4597 19.9539 39.8148L8.29119 51.4774L4.59715 47.7834L16.266 36.1146C16.6201 35.7606 16.6731 35.2054 16.3926 34.79C14.3455 31.7634 13.2629 28.2245 13.2629 24.556C13.2629 23.548 13.3465 22.5521 13.5067 21.5755L34.5274 42.596C33.5575 42.7557 32.5636 42.8425 31.5493 42.8425ZM36.9222 42.0357L14.071 19.1843C15.0478 15.9964 16.8887 13.1158 19.4451 10.8575C20.5651 11.8999 22.0649 12.5392 23.7121 12.5392C27.1444 12.5392 29.9394 9.76714 29.9797 6.34405C30.504 6.29944 31.0295 6.26959 31.5492 6.26959C41.6322 6.26959 49.8355 14.4729 49.8355 24.556C49.8357 32.7699 44.3912 39.7351 36.9222 42.0357Z" fill="#E53939"/>
<path d="M29.6527 4.26927L26.8104 5.22901L27.5686 7.47457L29.9287 7.25655L29.6527 4.26927ZM18.1671 9.19139L20.1375 11.4536L21.9308 9.89153L20.8192 7.78911L18.1671 9.19139ZM14.1913 35.2339L16.3127 37.3552L17.9897 35.6782L16.7449 33.6595L14.1913 35.2339ZM2.38083 47.0447L4.50215 49.166L4.50217 49.166L2.38083 47.0447ZM2.38083 48.5223L4.50215 46.4009L4.50215 46.4009L2.38083 48.5223ZM7.55249 53.6939L5.43117 55.8152L5.43117 55.8152L7.55249 53.6939ZM9.03011 53.6939L6.90879 51.5726L6.90879 51.5726L9.03011 53.6939ZM20.8336 41.8904L22.4141 39.3405L20.3934 38.088L18.7123 39.7691L20.8336 41.8904ZM19.5325 6.26959L22.5325 6.26959L19.5325 6.26959ZM21.2805 39.6893L19.5914 42.1685L19.5934 42.1699L21.2805 39.6893ZM19.9539 39.8148L22.0752 41.9361L22.0752 41.9361L19.9539 39.8148ZM8.29119 51.4774L6.16987 53.5987L8.29118 55.72L10.4125 53.5987L8.29119 51.4774ZM4.59715 47.7834L2.47584 45.662L0.3545 47.7833L2.47583 49.9047L4.59715 47.7834ZM16.266 36.1146L18.3873 38.2359L18.3873 38.2359L16.266 36.1146ZM16.3926 34.79L18.8786 33.1108L18.8776 33.1093L16.3926 34.79ZM13.5067 21.5755L15.628 19.4542L11.493 15.3192L10.5463 21.0899L13.5067 21.5755ZM34.5274 42.596L35.0147 45.5561L40.7809 44.6068L36.6487 40.4746L34.5274 42.596ZM36.9222 42.0357L34.8008 44.157L36.0785 45.4347L37.8053 44.9028L36.9222 42.0357ZM14.071 19.1843L11.2026 18.3054L10.6741 20.0301L11.9497 21.3057L14.071 19.1843ZM19.4451 10.8575L21.4891 8.66152L19.4978 6.80807L17.459 8.6091L19.4451 10.8575ZM29.9797 6.34405L29.7253 3.35485L27.0119 3.58574L26.9799 6.30874L29.9797 6.34405ZM49.8355 24.556L46.8355 24.556L46.8355 24.556L49.8355 24.556ZM31.5493 1.17973C30.8226 1.17973 30.0947 1.21567 29.3768 1.28199L29.9287 7.25655C30.4757 7.20601 31.0191 7.17973 31.5493 7.17973V1.17973ZM32.4951 3.30953C31.2604 -0.347157 27.8003 -3 23.7122 -3V3C25.1397 3 26.3711 3.92803 26.8104 5.22901L32.4951 3.30953ZM23.7122 -3C18.5981 -3 14.4426 1.15547 14.4426 6.26959H20.4426C20.4426 4.46918 21.9118 3 23.7122 3V-3ZM14.4426 6.26959C14.4426 7.82839 14.8321 9.30213 15.515 10.5937L20.8192 7.78911C20.5786 7.33409 20.4426 6.81995 20.4426 6.26959H14.4426ZM16.1966 6.92922C11.091 11.3765 8.17292 17.7638 8.17292 24.556H14.1729C14.1729 19.5024 16.3372 14.7638 20.1375 11.4536L16.1966 6.92922ZM8.17292 24.556C8.17292 28.9066 9.367 33.1257 11.6377 36.8084L16.7449 33.6595C15.0606 30.9276 14.1729 27.7995 14.1729 24.556H8.17292ZM12.07 33.1126L0.259491 44.9234L4.50217 49.166L16.3127 37.3552L12.07 33.1126ZM0.25951 44.9233C-1.32023 46.5031 -1.32023 49.0639 0.25951 50.6436L4.50215 46.4009C5.26556 47.1644 5.26556 48.4026 4.50215 49.166L0.25951 44.9233ZM0.25951 50.6436L5.43117 55.8152L9.67381 51.5726L4.50215 46.4009L0.25951 50.6436ZM5.43117 55.8152C6.21982 56.6039 7.25988 57.0001 8.2913 57.0001V51.0001C8.78799 51.0001 9.29333 51.1921 9.67381 51.5726L5.43117 55.8152ZM8.2913 57.0001C9.32271 57.0001 10.3628 56.6039 11.1514 55.8152L6.90879 51.5726C7.28927 51.1921 7.79461 51.0001 8.2913 51.0001V57.0001ZM11.1514 55.8152L22.955 44.0117L18.7123 39.7691L6.90879 51.5726L11.1514 55.8152ZM19.2532 44.4403C22.9457 46.7289 27.1803 47.9323 31.5494 47.9323V41.9323C28.2916 41.9323 25.1525 41.0377 22.4141 39.3405L19.2532 44.4403ZM31.5494 47.9323C44.4414 47.9323 54.9256 37.448 54.9256 24.5561H48.9256C48.9256 34.1343 41.1277 41.9323 31.5494 41.9323V47.9323ZM54.9256 24.5561C54.9256 11.6642 44.4412 1.17973 31.5493 1.17973V7.17973C41.1275 7.17973 48.9256 14.9779 48.9256 24.5561H54.9256ZM23.7122 5.08986C24.3605 5.08986 24.8919 5.62127 24.8919 6.26959H30.8919C30.8919 2.30766 27.6743 -0.910137 23.7122 -0.910137V5.08986ZM24.8919 6.26959C24.8919 6.91792 24.3605 7.44932 23.7122 7.44932V13.4493C27.6741 13.4493 30.8919 10.2317 30.8919 6.26959H24.8919ZM23.7122 7.44932C23.0638 7.44932 22.5325 6.91797 22.5325 6.26959H16.5325C16.5325 10.2317 19.7501 13.4493 23.7122 13.4493V7.44932ZM22.5325 6.26959C22.5325 5.62127 23.0639 5.08986 23.7122 5.08986V-0.910137C19.7501 -0.910137 16.5325 2.30766 16.5325 6.26959L22.5325 6.26959ZM31.5493 39.8425C28.4641 39.8425 25.5013 38.9319 22.9677 37.2086L19.5934 42.1699C23.1273 44.5734 27.2668 45.8425 31.5493 45.8425V39.8425ZM22.9696 37.21C21.3641 36.1161 19.2061 36.32 17.8326 37.6934L22.0752 41.9361C21.412 42.5993 20.3703 42.6992 19.5914 42.1685L22.9696 37.21ZM17.8326 37.6934L6.16988 49.3561L10.4125 53.5987L22.0752 41.9361L17.8326 37.6934ZM10.4125 49.3561L6.71847 45.662L2.47583 49.9047L6.16987 53.5987L10.4125 49.3561ZM6.71846 49.9047L18.3873 38.2359L14.1447 33.9933L2.47584 45.662L6.71846 49.9047ZM18.3873 38.2359C19.7589 36.8644 19.9622 34.7151 18.8786 33.1108L13.9066 36.4692C13.384 35.6956 13.4812 34.6567 14.1447 33.9933L18.3873 38.2359ZM18.8776 33.1093C17.1674 30.5808 16.2629 27.6276 16.2629 24.556H10.2629C10.2629 28.8214 11.5237 32.946 13.9076 36.4707L18.8776 33.1093ZM16.2629 24.556C16.2629 23.7142 16.3327 22.8806 16.4672 22.0612L10.5463 21.0899C10.3603 22.2235 10.2629 23.3818 10.2629 24.556H16.2629ZM11.3854 23.6969L32.4061 44.7173L36.6487 40.4746L15.628 19.4542L11.3854 23.6969ZM34.04 39.6358C33.2227 39.7704 32.3919 39.8425 31.5493 39.8425V45.8425C32.7352 45.8425 33.8923 45.7409 35.0147 45.5561L34.04 39.6358ZM39.0435 39.9144L16.1923 17.063L11.9497 21.3057L34.8008 44.157L39.0435 39.9144ZM16.9393 20.0633C17.7544 17.4032 19.2906 14.9969 21.4313 13.1059L17.459 8.6091C14.4868 11.2346 12.3412 14.5896 11.2026 18.3054L16.9393 20.0633ZM17.4012 13.0534C19.0514 14.5894 21.273 15.5392 23.7121 15.5392V9.53918C22.8568 9.53918 22.0789 9.21045 21.4891 8.66152L17.4012 13.0534ZM23.7121 15.5392C28.7908 15.5392 32.9199 11.4421 32.9795 6.37936L26.9799 6.30874C26.9589 8.09219 25.498 9.53918 23.7121 9.53918V15.5392ZM30.234 9.33325C30.7054 9.29314 31.1411 9.26959 31.5492 9.26959V3.26959C30.9179 3.26959 30.3026 3.30573 29.7253 3.35485L30.234 9.33325ZM31.5492 9.26959C39.9753 9.26959 46.8355 16.1298 46.8355 24.556H52.8355C52.8355 12.8161 43.289 3.26959 31.5492 3.26959V9.26959ZM46.8355 24.556C46.8356 31.413 42.2887 37.2437 36.0391 39.1687L37.8053 44.9028C46.4938 42.2266 52.8357 34.1268 52.8355 24.5559L46.8355 24.556Z" fill="#E53939" mask="url(#path-1-inside-1_75_85)"/>
<mask id="path-3-inside-2_75_85" fill="white">
<path d="M30.5493 4.17973C29.9209 4.17973 29.2852 4.21084 28.6527 4.26927C27.8157 1.79044 25.47 0 22.7122 0C19.2549 0 16.4426 2.81232 16.4426 6.26959C16.4426 7.32417 16.7053 8.31811 17.1671 9.19139C12.7141 13.0701 10.1729 18.6331 10.1729 24.556C10.1729 28.3531 11.2138 32.0266 13.1913 35.2339L1.38083 47.0447C0.972666 47.4528 0.972666 48.1141 1.38083 48.5223L6.55249 53.6939C6.75657 53.898 7.02394 54.0001 7.2913 54.0001C7.55866 54.0001 7.82603 53.898 8.03011 53.6939L19.8336 41.8904C23.0491 43.8833 26.7359 44.9323 30.5494 44.9323C41.7845 44.9323 50.9256 35.7911 50.9256 24.5561C50.9256 13.321 41.7843 4.17973 30.5493 4.17973ZM22.7122 2.08986C25.0174 2.08986 26.8919 3.96446 26.8919 6.26959C26.8919 8.57482 25.0173 10.4493 22.7122 10.4493C20.407 10.4493 18.5325 8.57482 18.5325 6.26959C18.5325 3.96446 20.407 2.08986 22.7122 2.08986ZM30.5493 42.8425C26.8655 42.8425 23.3143 41.7527 20.2805 39.6893C19.8672 39.4077 19.309 39.4597 18.9539 39.8148L7.29119 51.4774L3.59715 47.7834L15.266 36.1146C15.6201 35.7606 15.6731 35.2054 15.3926 34.79C13.3455 31.7634 12.2629 28.2245 12.2629 24.556C12.2629 23.548 12.3465 22.5521 12.5067 21.5755L33.5274 42.596C32.5575 42.7557 31.5636 42.8425 30.5493 42.8425ZM35.9222 42.0357L13.071 19.1843C14.0478 15.9964 15.8887 13.1158 18.4451 10.8575C19.5651 11.8999 21.0649 12.5392 22.7121 12.5392C26.1444 12.5392 28.9394 9.76714 28.9797 6.34405C29.504 6.29944 30.0295 6.26959 30.5492 6.26959C40.6322 6.26959 48.8355 14.4729 48.8355 24.556C48.8357 32.7699 43.3912 39.7351 35.9222 42.0357Z"/>
</mask>
<path d="M30.5493 4.17973C29.9209 4.17973 29.2852 4.21084 28.6527 4.26927C27.8157 1.79044 25.47 0 22.7122 0C19.2549 0 16.4426 2.81232 16.4426 6.26959C16.4426 7.32417 16.7053 8.31811 17.1671 9.19139C12.7141 13.0701 10.1729 18.6331 10.1729 24.556C10.1729 28.3531 11.2138 32.0266 13.1913 35.2339L1.38083 47.0447C0.972666 47.4528 0.972666 48.1141 1.38083 48.5223L6.55249 53.6939C6.75657 53.898 7.02394 54.0001 7.2913 54.0001C7.55866 54.0001 7.82603 53.898 8.03011 53.6939L19.8336 41.8904C23.0491 43.8833 26.7359 44.9323 30.5494 44.9323C41.7845 44.9323 50.9256 35.7911 50.9256 24.5561C50.9256 13.321 41.7843 4.17973 30.5493 4.17973ZM22.7122 2.08986C25.0174 2.08986 26.8919 3.96446 26.8919 6.26959C26.8919 8.57482 25.0173 10.4493 22.7122 10.4493C20.407 10.4493 18.5325 8.57482 18.5325 6.26959C18.5325 3.96446 20.407 2.08986 22.7122 2.08986ZM30.5493 42.8425C26.8655 42.8425 23.3143 41.7527 20.2805 39.6893C19.8672 39.4077 19.309 39.4597 18.9539 39.8148L7.29119 51.4774L3.59715 47.7834L15.266 36.1146C15.6201 35.7606 15.6731 35.2054 15.3926 34.79C13.3455 31.7634 12.2629 28.2245 12.2629 24.556C12.2629 23.548 12.3465 22.5521 12.5067 21.5755L33.5274 42.596C32.5575 42.7557 31.5636 42.8425 30.5493 42.8425ZM35.9222 42.0357L13.071 19.1843C14.0478 15.9964 15.8887 13.1158 18.4451 10.8575C19.5651 11.8999 21.0649 12.5392 22.7121 12.5392C26.1444 12.5392 28.9394 9.76714 28.9797 6.34405C29.504 6.29944 30.0295 6.26959 30.5492 6.26959C40.6322 6.26959 48.8355 14.4729 48.8355 24.556C48.8357 32.7699 43.3912 39.7351 35.9222 42.0357Z" fill="#E53939"/>
<path d="M28.6527 4.26927L25.8104 5.22901L26.5686 7.47457L28.9287 7.25655L28.6527 4.26927ZM17.1671 9.19139L19.1375 11.4536L20.9308 9.89153L19.8192 7.78911L17.1671 9.19139ZM13.1913 35.2339L15.3127 37.3552L16.9897 35.6782L15.7449 33.6595L13.1913 35.2339ZM1.38083 47.0447L3.50215 49.166L3.50217 49.166L1.38083 47.0447ZM1.38083 48.5223L3.50215 46.4009L3.50215 46.4009L1.38083 48.5223ZM6.55249 53.6939L4.43117 55.8152L4.43117 55.8152L6.55249 53.6939ZM8.03011 53.6939L5.90879 51.5726L5.90879 51.5726L8.03011 53.6939ZM19.8336 41.8904L21.4141 39.3405L19.3934 38.088L17.7123 39.7691L19.8336 41.8904ZM18.5325 6.26959L21.5325 6.26959L18.5325 6.26959ZM20.2805 39.6893L18.5914 42.1685L18.5934 42.1699L20.2805 39.6893ZM18.9539 39.8148L21.0752 41.9361L21.0752 41.9361L18.9539 39.8148ZM7.29119 51.4774L5.16987 53.5987L7.29118 55.72L9.4125 53.5987L7.29119 51.4774ZM3.59715 47.7834L1.47584 45.662L-0.6455 47.7833L1.47583 49.9047L3.59715 47.7834ZM15.266 36.1146L17.3873 38.2359L17.3873 38.2359L15.266 36.1146ZM15.3926 34.79L17.8786 33.1108L17.8776 33.1093L15.3926 34.79ZM12.5067 21.5755L14.628 19.4542L10.493 15.3192L9.5463 21.0899L12.5067 21.5755ZM33.5274 42.596L34.0147 45.5561L39.7809 44.6068L35.6487 40.4746L33.5274 42.596ZM35.9222 42.0357L33.8008 44.157L35.0785 45.4347L36.8053 44.9028L35.9222 42.0357ZM13.071 19.1843L10.2026 18.3054L9.67413 20.0301L10.9497 21.3057L13.071 19.1843ZM18.4451 10.8575L20.4891 8.66152L18.4978 6.80807L16.459 8.6091L18.4451 10.8575ZM28.9797 6.34405L28.7253 3.35485L26.0119 3.58574L25.9799 6.30874L28.9797 6.34405ZM48.8355 24.556L45.8355 24.556L45.8355 24.556L48.8355 24.556ZM30.5493 1.17973C29.8226 1.17973 29.0947 1.21567 28.3768 1.28199L28.9287 7.25655C29.4757 7.20601 30.0191 7.17973 30.5493 7.17973V1.17973ZM31.4951 3.30953C30.2604 -0.347157 26.8003 -3 22.7122 -3V3C24.1397 3 25.3711 3.92803 25.8104 5.22901L31.4951 3.30953ZM22.7122 -3C17.5981 -3 13.4426 1.15547 13.4426 6.26959H19.4426C19.4426 4.46918 20.9118 3 22.7122 3V-3ZM13.4426 6.26959C13.4426 7.82839 13.8321 9.30213 14.515 10.5937L19.8192 7.78911C19.5786 7.33409 19.4426 6.81995 19.4426 6.26959H13.4426ZM15.1966 6.92922C10.091 11.3765 7.17292 17.7638 7.17292 24.556H13.1729C13.1729 19.5024 15.3372 14.7638 19.1375 11.4536L15.1966 6.92922ZM7.17292 24.556C7.17292 28.9066 8.367 33.1257 10.6377 36.8084L15.7449 33.6595C14.0606 30.9276 13.1729 27.7995 13.1729 24.556H7.17292ZM11.07 33.1126L-0.740509 44.9234L3.50217 49.166L15.3127 37.3552L11.07 33.1126ZM-0.74049 44.9233C-2.32023 46.5031 -2.32023 49.0639 -0.74049 50.6436L3.50215 46.4009C4.26556 47.1644 4.26556 48.4026 3.50215 49.166L-0.74049 44.9233ZM-0.74049 50.6436L4.43117 55.8152L8.67381 51.5726L3.50215 46.4009L-0.74049 50.6436ZM4.43117 55.8152C5.21982 56.6039 6.25988 57.0001 7.2913 57.0001V51.0001C7.78799 51.0001 8.29333 51.1921 8.67381 51.5726L4.43117 55.8152ZM7.2913 57.0001C8.32271 57.0001 9.36278 56.6039 10.1514 55.8152L5.90879 51.5726C6.28927 51.1921 6.79461 51.0001 7.2913 51.0001V57.0001ZM10.1514 55.8152L21.955 44.0117L17.7123 39.7691L5.90879 51.5726L10.1514 55.8152ZM18.2532 44.4403C21.9457 46.7289 26.1803 47.9323 30.5494 47.9323V41.9323C27.2916 41.9323 24.1525 41.0377 21.4141 39.3405L18.2532 44.4403ZM30.5494 47.9323C43.4414 47.9323 53.9256 37.448 53.9256 24.5561H47.9256C47.9256 34.1343 40.1277 41.9323 30.5494 41.9323V47.9323ZM53.9256 24.5561C53.9256 11.6642 43.4412 1.17973 30.5493 1.17973V7.17973C40.1275 7.17973 47.9256 14.9779 47.9256 24.5561H53.9256ZM22.7122 5.08986C23.3605 5.08986 23.8919 5.62127 23.8919 6.26959H29.8919C29.8919 2.30766 26.6743 -0.910137 22.7122 -0.910137V5.08986ZM23.8919 6.26959C23.8919 6.91792 23.3605 7.44932 22.7122 7.44932V13.4493C26.6741 13.4493 29.8919 10.2317 29.8919 6.26959H23.8919ZM22.7122 7.44932C22.0638 7.44932 21.5325 6.91797 21.5325 6.26959H15.5325C15.5325 10.2317 18.7501 13.4493 22.7122 13.4493V7.44932ZM21.5325 6.26959C21.5325 5.62127 22.0639 5.08986 22.7122 5.08986V-0.910137C18.7501 -0.910137 15.5325 2.30766 15.5325 6.26959L21.5325 6.26959ZM30.5493 39.8425C27.4641 39.8425 24.5013 38.9319 21.9677 37.2086L18.5934 42.1699C22.1273 44.5734 26.2668 45.8425 30.5493 45.8425V39.8425ZM21.9696 37.21C20.3641 36.1161 18.2061 36.32 16.8326 37.6934L21.0752 41.9361C20.412 42.5993 19.3703 42.6992 18.5914 42.1685L21.9696 37.21ZM16.8326 37.6934L5.16988 49.3561L9.4125 53.5987L21.0752 41.9361L16.8326 37.6934ZM9.41251 49.3561L5.71847 45.662L1.47583 49.9047L5.16987 53.5987L9.41251 49.3561ZM5.71846 49.9047L17.3873 38.2359L13.1447 33.9933L1.47584 45.662L5.71846 49.9047ZM17.3873 38.2359C18.7589 36.8644 18.9622 34.7151 17.8786 33.1108L12.9066 36.4692C12.384 35.6956 12.4812 34.6567 13.1447 33.9933L17.3873 38.2359ZM17.8776 33.1093C16.1674 30.5808 15.2629 27.6276 15.2629 24.556H9.26289C9.26289 28.8214 10.5237 32.946 12.9076 36.4707L17.8776 33.1093ZM15.2629 24.556C15.2629 23.7142 15.3327 22.8806 15.4672 22.0612L9.5463 21.0899C9.36032 22.2235 9.26289 23.3818 9.26289 24.556H15.2629ZM10.3854 23.6969L31.4061 44.7173L35.6487 40.4746L14.628 19.4542L10.3854 23.6969ZM33.04 39.6358C32.2227 39.7704 31.3919 39.8425 30.5493 39.8425V45.8425C31.7352 45.8425 32.8923 45.7409 34.0147 45.5561L33.04 39.6358ZM38.0435 39.9144L15.1923 17.063L10.9497 21.3057L33.8008 44.157L38.0435 39.9144ZM15.9393 20.0633C16.7544 17.4032 18.2906 14.9969 20.4313 13.1059L16.459 8.6091C13.4868 11.2346 11.3412 14.5896 10.2026 18.3054L15.9393 20.0633ZM16.4012 13.0534C18.0514 14.5894 20.273 15.5392 22.7121 15.5392V9.53918C21.8568 9.53918 21.0789 9.21045 20.4891 8.66152L16.4012 13.0534ZM22.7121 15.5392C27.7908 15.5392 31.9199 11.4421 31.9795 6.37936L25.9799 6.30874C25.9589 8.09219 24.498 9.53918 22.7121 9.53918V15.5392ZM29.234 9.33325C29.7054 9.29314 30.1411 9.26959 30.5492 9.26959V3.26959C29.9179 3.26959 29.3026 3.30573 28.7253 3.35485L29.234 9.33325ZM30.5492 9.26959C38.9753 9.26959 45.8355 16.1298 45.8355 24.556H51.8355C51.8355 12.8161 42.289 3.26959 30.5492 3.26959V9.26959ZM45.8355 24.556C45.8356 31.413 41.2887 37.2437 35.0391 39.1687L36.8053 44.9028C45.4938 42.2266 51.8357 34.1268 51.8355 24.5559L45.8355 24.556Z" fill="#E53939" mask="url(#path-3-inside-2_75_85)"/>
</g>
<defs>
<clipPath id="clip0_75_85">
<rect width="54" height="54" fill="white"/>
</clipPath>
</defs>
</svg>
