<svg width="96" height="96" viewBox="0 0 96 96" fill="none" xmlns="http://www.w3.org/2000/svg">
<mask id="path-1-outside-1_92_112" maskUnits="userSpaceOnUse" x="31" y="17" width="51" height="60" fill="black">
<rect fill="white" x="31" y="17" width="51" height="60"/>
<path d="M51.44 53.8H46.32V75H33.2V19.56H51.36C58.9333 19.56 64.6133 20.9467 68.4 23.72C72.24 26.4933 74.16 30.7333 74.16 36.44C74.16 40.0133 73.3067 43 71.6 45.4C69.8933 47.7467 67.2 49.7467 63.52 51.4L77.6 75H62.8L51.44 53.8ZM46.32 44.76H51.84C54.7733 44.76 56.96 44.0933 58.4 42.76C59.8933 41.4267 60.64 39.32 60.64 36.44C60.64 33.7733 59.84 31.8267 58.24 30.6C56.6933 29.3733 54.2933 28.76 51.04 28.76H46.32V44.76Z"/>
</mask>
<path d="M51.44 53.8H46.32V75H33.2V19.56H51.36C58.9333 19.56 64.6133 20.9467 68.4 23.72C72.24 26.4933 74.16 30.7333 74.16 36.44C74.16 40.0133 73.3067 43 71.6 45.4C69.8933 47.7467 67.2 49.7467 63.52 51.4L77.6 75H62.8L51.44 53.8ZM46.32 44.76H51.84C54.7733 44.76 56.96 44.0933 58.4 42.76C59.8933 41.4267 60.64 39.32 60.64 36.44C60.64 33.7733 59.84 31.8267 58.24 30.6C56.6933 29.3733 54.2933 28.76 51.04 28.76H46.32V44.76Z" fill="black"/>
<path d="M51.44 53.8L53.2029 52.8554L52.6373 51.8H51.44V53.8ZM46.32 53.8V51.8H44.32V53.8H46.32ZM46.32 75V77H48.32V75H46.32ZM33.2 75H31.2V77H33.2V75ZM33.2 19.56V17.56H31.2V19.56H33.2ZM68.4 23.72L67.2182 25.3336L67.229 25.3414L68.4 23.72ZM71.6 45.4L73.2175 46.5763L73.2237 46.5677L73.2299 46.559L71.6 45.4ZM63.52 51.4L62.7004 49.5757L60.6518 50.496L61.8025 52.4247L63.52 51.4ZM77.6 75V77H81.1221L79.3175 73.9753L77.6 75ZM62.8 75L61.0371 75.9446L61.6027 77H62.8V75ZM46.32 44.76H44.32V46.76H46.32V44.76ZM58.4 42.76L57.068 41.2681L57.0545 41.2802L57.0412 41.2925L58.4 42.76ZM58.24 30.6L56.9972 32.167L57.0101 32.1772L57.0231 32.1872L58.24 30.6ZM46.32 28.76V26.76H44.32V28.76H46.32ZM51.44 51.8H46.32V55.8H51.44V51.8ZM44.32 53.8V75H48.32V53.8H44.32ZM46.32 73H33.2V77H46.32V73ZM35.2 75V19.56H31.2V75H35.2ZM33.2 21.56H51.36V17.56H33.2V21.56ZM51.36 21.56C58.7483 21.56 63.9274 22.9233 67.2183 25.3335L69.5817 22.1065C65.2993 18.97 59.1184 17.56 51.36 17.56V21.56ZM67.229 25.3414C70.4386 27.6594 72.16 31.2269 72.16 36.44H76.16C76.16 30.2398 74.0414 25.3273 69.571 22.0986L67.229 25.3414ZM72.16 36.44C72.16 39.6882 71.3885 42.2463 69.9701 44.241L73.2299 46.559C75.2248 43.7537 76.16 40.3385 76.16 36.44H72.16ZM69.9825 44.2237C68.5455 46.1996 66.1806 48.0121 62.7004 49.5757L64.3396 53.2243C68.2194 51.4813 71.2412 49.2937 73.2175 46.5763L69.9825 44.2237ZM61.8025 52.4247L75.8825 76.0247L79.3175 73.9753L65.2376 50.3753L61.8025 52.4247ZM77.6 73H62.8V77H77.6V73ZM64.5629 74.0554L53.2029 52.8554L49.6771 54.7446L61.0371 75.9446L64.5629 74.0554ZM46.32 46.76H51.84V42.76H46.32V46.76ZM51.84 46.76C55.0333 46.76 57.8024 46.039 59.7588 44.2275L57.0412 41.2925C56.1176 42.1477 54.5134 42.76 51.84 42.76V46.76ZM59.732 44.2519C61.8096 42.3969 62.64 39.6342 62.64 36.44H58.64C58.64 39.0058 57.9771 40.4564 57.068 41.2681L59.732 44.2519ZM62.64 36.44C62.64 33.3687 61.7007 30.7331 59.4569 29.0128L57.0231 32.1872C57.9793 32.9202 58.64 34.1779 58.64 36.44H62.64ZM59.4828 29.033C57.4176 27.3951 54.4754 26.76 51.04 26.76V30.76C54.1113 30.76 55.9691 31.3516 56.9972 32.167L59.4828 29.033ZM51.04 26.76H46.32V30.76H51.04V26.76ZM44.32 28.76V44.76H48.32V28.76H44.32Z" fill="white" mask="url(#path-1-outside-1_92_112)"/>
</svg>
